<svg width='200' height='200' fill="#000000" xmlns="http://www.w3.org/2000/svg" xmlns:xlink="http://www.w3.org/1999/xlink" xml:space="preserve" version="1.1" style="shape-rendering:geometricPrecision;text-rendering:geometricPrecision;image-rendering:optimizeQuality;" viewBox="0 0 279 156" x="0px" y="0px" fill-rule="evenodd" clip-rule="evenodd"><defs><style type="text/css">
   
    .fil0 {fill:#000000;fill-rule:nonzero}
   
  </style></defs><g><path class="fil0" d="M279 78c-57,104 -221,103 -279,0 58,-104 221,-104 279,0zm-27 0c-18,-32 -49,-52 -86,-58 51,22 51,93 1,116 39,-7 67,-26 85,-58zm-134 -46l-5 -12c-39,7 -68,26 -86,58 18,32 49,51 85,58 -31,-14 -45,-49 -34,-80l14 4c-21,50 45,92 84,54 40,-40 -6,-106 -58,-82zm60 46c-2,59 -91,46 -75,-14l40 18 -19 -39c25,-11 54,7 54,35z"/></g></svg>